<mxfile host="app.diagrams.net" modified="2024-03-06T06:11:06.071Z" agent="Mozilla/5.0 (Windows NT 10.0; Win64; x64) AppleWebKit/537.36 (KHTML, like Gecko) Chrome/122.0.0.0 Safari/537.36" version="24.0.2" etag="z86F2PmqtoNjEUXYNXo2" type="github">
  <diagram name="第 1 页" id="qW4DOj6AgRY8q806XMH-">
    <mxGraphModel>
      <root>
        <mxCell id="0" />
        <mxCell id="1" parent="0" />
      </root>
    </mxGraphModel>
  </diagram>
</mxfile>
